<?xml version="1.0" encoding="utf-8"?>
<!-- Generator: Adobe Illustrator 16.0.0, SVG Export Plug-In . SVG Version: 6.00 Build 0)  -->
<!DOCTYPE svg PUBLIC "-//W3C//DTD SVG 1.0//EN" "http://www.w3.org/TR/2001/REC-SVG-20010904/DTD/svg10.dtd">
<svg version="1.0" id="Layer_1" xmlns="http://www.w3.org/2000/svg" xmlns:xlink="http://www.w3.org/1999/xlink" x="0px" y="0px"
	 width="197.117px" height="65.025px" viewBox="0 0 197.117 65.025" enable-background="new 0 0 197.117 65.025"
	 xml:space="preserve">
<g id="wing">
	<g>
		<path fill="#181026" d="M78.332,29.969c0,0-17.751-4.281-24.265-29.969c0,0-32.082,7.304-54.067,40.546
			c0,0,12.865-6.8,23.125-3.273c10.26,3.525,7.003,23.169,7.003,23.169s6.188-12.089,15.634-11.081
			c9.445,1.007,8.469,15.362,8.469,15.362s10.911-30.725,24.102-21.658V29.969z"/>
	</g>
	<g>
		<path fill="#181026" d="M118.785,29.969c0,0,17.751-4.281,24.265-29.969c0,0,32.083,7.304,54.067,40.546
			c0,0-12.865-6.8-23.125-3.273c-10.26,3.525-7.003,23.169-7.003,23.169s-6.188-12.089-15.634-11.081
			c-9.445,1.007-8.468,15.362-8.468,15.362s-10.911-30.725-24.103-21.658V29.969z"/>
	</g>
</g>
<g>
	<path fill="#181026" d="M92.561,12.084c0,0-5.851-7.046-16.299-9.452c0,0-10.865,13.062,6.478,18.562L92.561,12.084z"/>
	<path fill="#181026" d="M104.557,12.084c0,0,5.852-7.046,16.299-9.452c0,0,10.865,13.062-6.478,18.562L104.557,12.084z"/>
</g>
<path fill="#633587" d="M122.803,33.25c0,16.198-14.628,31.775-24.244,31.775S74.315,49.448,74.315,33.25S85.169,8.723,98.559,8.723
	S122.803,17.052,122.803,33.25z"/>
<g id="pumpkin-mouth">
	<path fill="#181026" d="M98.559,45.236c-7.559,0-11.753-2.99-11.753-2.99c2.894,5.357,7.876,7.161,11.753,7.161
		s8.859-1.804,11.753-7.161C110.312,42.246,106.118,45.236,98.559,45.236z"/>
	<g>
		<path fill="#FFFFFF" d="M91.371,44.242l0.269,5.691l2.137-5.121C92.892,44.651,92.094,44.454,91.371,44.242z"/>
		<path fill="#FFFFFF" d="M103.341,44.813l2.138,5.121l0.268-5.691C105.023,44.454,104.226,44.651,103.341,44.813z"/>
	</g>
</g>
<g id="pumpkin-eye">
	<g>
		<ellipse fill="#DF1F26" cx="88.239" cy="29.52" rx="7.283" ry="7.354"/>
		<ellipse fill="#010101" cx="88.238" cy="29.52" rx="3.101" ry="3.131"/>
		<ellipse fill="#FFFFFF" cx="85.48" cy="27.47" rx="2.03" ry="2.05"/>
	</g>
	<g>
		<ellipse fill="#DF1F26" cx="108.879" cy="29.52" rx="7.283" ry="7.354"/>
		<ellipse fill="#010101" cx="108.879" cy="29.52" rx="3.101" ry="3.131"/>
		<ellipse fill="#FFFFFF" cx="106.121" cy="27.47" rx="2.03" ry="2.05"/>
	</g>
</g>
</svg>
