<?xml version="1.0" encoding="utf-8"?>
<!-- Generator: Adobe Illustrator 16.0.0, SVG Export Plug-In . SVG Version: 6.00 Build 0)  -->
<!DOCTYPE svg PUBLIC "-//W3C//DTD SVG 1.0//EN" "http://www.w3.org/TR/2001/REC-SVG-20010904/DTD/svg10.dtd">
<svg version="1.0" id="pumpkin-anim" xmlns="http://www.w3.org/2000/svg" xmlns:xlink="http://www.w3.org/1999/xlink" x="0px"
	 y="0px" width="130px" height="114px" viewBox="0 0 130 114" enable-background="new 0 0 130 114" xml:space="preserve">
<g>
	<path fill="#F05523" d="M30.094,24.646c-1.72,0.262-3.527,0.687-5.417,1.321C9.353,31.109-5.18,67.772,10.145,91.655
		c5.972,9.307,13.268,12.783,19.949,13.562V24.646z"/>
	<path fill="#F05523" d="M99.715,24.646c1.72,0.262,3.527,0.687,5.416,1.321c15.326,5.142,29.857,41.805,14.533,65.688
		c-5.973,9.307-13.268,12.783-19.949,13.562V24.646z"/>
</g>
<path fill="#F6851F" d="M51.456,25.832c-0.749,0.642-1.164,1.074-1.164,1.074s-8.166-9.05-20.628-3.561
	C17.201,28.833,5.383,67.963,17.846,93.454c12.463,25.488,32.017,10.01,32.017,10.01s0.541,0.652,1.593,1.531V25.832z"/>
<path fill="#F05523" d="M64.922,19.347c-5.834,0-10.83,1.768-13.466,3.859v84.438c2.551,1.916,7.067,4.379,13.466,4.379
	c5.89,0,10.193-2.089,12.83-3.915V22.712C74.99,20.645,70.311,19.347,64.922,19.347z"/>
<path fill="#F6851F" d="M100.145,23.345c-12.463-5.489-20.629,3.561-20.629,3.561s-0.638-0.665-1.764-1.574v80.147
	c1.453-1.117,2.194-2.016,2.194-2.016s19.554,15.479,32.017-10.01C124.426,67.963,112.607,28.833,100.145,23.345z"/>
<path fill="#130D1A" d="M72.996,7.894c-4.241,3.548-5.813,11.599-4.753,20.259c-1.454,0.53-3.314,0.208-4.769,0.738
	c-3.314-8.336-3.497-19.595-0.433-26.754C66.968,0.597,70.072,2.071,72.996,7.894z"/>
<path fill="#F99E1C" d="M86.238,22.736c-11.035-4.693-18.954,0.908-21.334,2.97c-2.379-2.062-10.299-7.663-21.333-2.97
	C30.252,28.4,17.622,68.788,30.941,95.095c12.395,24.481,31.39,12.349,33.963,10.546c2.573,1.803,21.569,13.936,33.963-10.546
	C112.188,68.788,99.557,28.4,86.238,22.736z"/>
<path fill="#130D1A" d="M69.328,66.161l-4.282-8.271c-1.602,2.518-2.964,5.753-4.566,8.271c0.361,0,4.279-0.999,4.279-0.999
	L69.328,66.161z"/>
<path id="mouth-anim" fill="#130D1A" d="M102.044,61.911c-2.967,4.105-8.218,7.203-14.628,9.296l2.08,7.997l-15.912,3.148
	l-1.342-8.193c-17.728,1.535-37.468-2.548-44.477-12.248c0,0-1.468,32.799,37.139,32.799
	C103.512,94.709,102.044,61.911,102.044,61.911z"/>
<g id="eye-anim">
	<g>
		<path fill="#130D1A" d="M51.065,34.29c2.992,7.728,5.614,15.597,7.856,23.574c-6.78,1.862-18.59-0.445-23.205-5.749
			C38.243,49.588,50.877,34.427,51.065,34.29z"/>
		<path fill="#130D1A" d="M94.093,52.115c-4.615,5.304-16.426,7.611-23.206,5.749c2.242-7.977,4.865-15.847,7.857-23.574
			C78.932,34.427,91.566,49.588,94.093,52.115z"/>
	</g>
</g>
</svg>
