<?xml version="1.0" encoding="utf-8"?>
<!-- Generator: Adobe Illustrator 16.0.0, SVG Export Plug-In . SVG Version: 6.00 Build 0)  -->
<!DOCTYPE svg PUBLIC "-//W3C//DTD SVG 1.0//EN" "http://www.w3.org/TR/2001/REC-SVG-20010904/DTD/svg10.dtd">
<svg version="1.0" id="pumpkin" xmlns="http://www.w3.org/2000/svg" xmlns:xlink="http://www.w3.org/1999/xlink" x="0px" y="0px"
	 width="128.75px" height="120px" viewBox="0 0 128.75 120" enable-background="new 0 0 128.75 120" xml:space="preserve">
<g>
	<g>
		<path fill="#F05523" d="M28.939,29.229c-1.72,0.262-3.527,0.687-5.417,1.321C8.198,35.692-6.334,72.355,8.991,96.238
			c5.972,9.307,13.268,12.783,19.949,13.562V29.229z"/>
		<path fill="#F05523" d="M98.561,29.229c1.72,0.262,3.527,0.687,5.417,1.321c15.324,5.142,29.856,41.805,14.532,65.688
			c-5.973,9.307-13.268,12.783-19.949,13.562V29.229z"/>
	</g>
	<path fill="#F6851F" d="M49.135,30.416c-0.813,0.642-1.265,1.074-1.265,1.074s-8.874-9.05-22.417-3.561
		C11.909,33.417-0.935,72.547,12.609,98.037c13.544,25.488,34.794,10.01,34.794,10.01s0.588,0.652,1.732,1.531V30.416z"/>
	<path fill="#F05523" d="M63.768,23.93c-5.834,0-10.83,1.768-13.466,3.859v84.438c2.551,1.916,7.067,4.379,13.466,4.379
		c5.89,0,10.192-2.089,12.829-3.915V27.296C73.837,25.229,69.156,23.93,63.768,23.93z"/>
	<path fill="#F6851F" d="M102.047,27.928c-13.544-5.489-22.418,3.561-22.418,3.561s-0.693-0.665-1.918-1.574v80.147
		c1.58-1.117,2.386-2.016,2.386-2.016s21.25,15.479,34.794-10.01C128.435,72.547,115.591,33.417,102.047,27.928z"/>
	<path fill="#130D1A" d="M69.166,4.122C63.484,3.027,57.8,4.931,54.321,9.555c3.186,2.585,5.52,6.204,6.561,10.173
		c1.041,3.969,0.784,8.267-0.723,12.083c1.511,0.42,2.48,1.055,3.991,1.475C68.361,24.142,70.821,14.052,69.166,4.122z"/>
	<path fill="#F99E1C" d="M39.732,27.319c12.422-4.693,21.339,0.909,24.018,2.97c2.679-2.061,11.595-7.663,24.018-2.97
		c14.995,5.665,29.214,46.052,14.219,72.359c-13.953,24.481-35.34,12.349-38.236,10.546c-2.896,1.803-24.283,13.936-38.236-10.546
		C10.518,73.371,24.738,32.984,39.732,27.319z"/>
	<path fill="#130D1A" d="M71.842,73.617l-7.832-8.271c-2.93,2.518-5.422,5.753-8.352,8.271
		C56.318,73.617,71.842,73.617,71.842,73.617z"/>
</g>
<g id="pumpkin-eye">
	<path fill="#130D1A" d="M40.997,38.873c0,0,4.489,12.233,16.77,19.896C57.767,58.769,25.035,80.912,40.997,38.873z"/>
	<path fill="#130D1A" d="M86.503,38.873c0,0-4.488,12.233-16.771,19.896C69.732,58.769,102.466,80.912,86.503,38.873z"/>
</g>
<path id="pumpkin-mouth" fill="#130D1A" d="M100.89,66.494c-2.235,2.371-4.749,4.469-7.45,6.316
	c0.352,4.838-0.734,9.782-3.151,13.991c0.233-3.415,0.458-6.915-0.512-10.198c-0.126-0.426-0.277-0.85-0.452-1.264
	c-1.418,0.781-2.873,1.502-4.363,2.154c0.302,4.188-0.424,8.451-2.185,12.264c-0.314-3.582-1.183-7.111-2.548-10.437
	c-10.906,3.646-22.971,4.045-33.354,1.046c-1.13,3.018-1.87,6.181-2.151,9.391c-1.573-3.404-2.317-7.168-2.246-10.916
	c-1.643-0.666-3.228-1.426-4.74-2.283c-0.004,0.015-0.01,0.029-0.015,0.045c-0.97,3.283-0.745,6.783-0.512,10.198
	c-2.2-3.831-3.295-8.271-3.211-12.685c-2.858-2.127-5.37-4.654-7.391-7.623c0,0-1.467,32.799,37.14,32.799
	C102.356,99.293,100.89,66.494,100.89,66.494z"/>
</svg>
